<svg width="76" height="35" viewBox="0 0 76 35" fill="none" xmlns="http://www.w3.org/2000/svg">
<g id="Semi" clip-path="url(#clip0_44_3436)">
<path id="Vector" d="M19.4692 23.5872L20.3918 22.9873H12.4478L13.3704 23.5872C14.5346 24.3438 15.4119 25.4529 15.8412 26.7091L15.9194 26.9381H16.9202L16.9984 26.7091C17.4276 25.4522 18.3049 24.3438 19.4692 23.5872ZM16.4198 26.2584C16.0327 25.2663 15.3924 24.3672 14.5659 23.6458H18.2729C17.4464 24.3664 16.806 25.2656 16.419 26.2584H16.4198Z" fill="#FFB800"/>
<path id="Vector_2" d="M1.91564 26.9381H2.37695L2.45514 26.7091C2.8844 25.4522 3.76169 24.3438 4.92593 23.5872L5.84856 22.9873H1.91564C0.8593 22.9873 0 23.7914 0 24.7798V25.1456C0 26.1341 0.8593 26.9381 1.91564 26.9381ZM0.703704 24.7798C0.703704 24.1543 1.24712 23.6458 1.91564 23.6458H3.73041C2.89848 24.3716 2.2542 25.2788 1.86872 26.2789C1.2221 26.2555 0.703704 25.7565 0.703704 25.1456V24.7798Z" fill="#FFB800"/>
<path id="Vector_3" d="M9.0699 25.3511C7.18632 25.3511 5.65381 26.7851 5.65381 28.5476C5.65381 30.3101 7.18632 31.7441 9.0699 31.7441C10.9535 31.7441 12.486 30.3101 12.486 28.5476C12.486 26.7851 10.9535 25.3511 9.0699 25.3511ZM9.0699 31.0856C7.57414 31.0856 6.35751 29.9472 6.35751 28.5476C6.35751 27.148 7.57414 26.0095 9.0699 26.0095C10.5657 26.0095 11.7823 27.148 11.7823 28.5476C11.7823 29.9472 10.5657 31.0856 9.0699 31.0856Z" fill="#FFB800"/>
<path id="Vector_4" d="M9.07 27.231C8.29437 27.231 7.6626 27.8221 7.6626 28.5479C7.6626 29.2737 8.29437 29.8648 9.07 29.8648C9.84564 29.8648 10.4774 29.2737 10.4774 28.5479C10.4774 27.8221 9.84564 27.231 9.07 27.231ZM9.07 29.2064C8.68219 29.2064 8.3663 28.9108 8.3663 28.5479C8.3663 28.185 8.68219 27.8894 9.07 27.8894C9.45782 27.8894 9.77371 28.185 9.77371 28.5479C9.77371 28.9108 9.45782 29.2064 9.07 29.2064Z" fill="#FFB800"/>
<path id="Vector_5" d="M15.0514 28.5477C15.0514 25.4616 12.3679 22.9507 9.06991 22.9507C5.77189 22.9507 3.08843 25.4616 3.08843 28.5477C3.08843 30.2831 3.93679 31.8371 5.26679 32.8643H0.703659C0.508967 32.8643 0.351807 33.0114 0.351807 33.1935C0.351807 33.3757 0.508967 33.5228 0.703659 33.5228H6.33329C6.33329 33.5228 6.33407 33.5228 6.33485 33.5228C7.15506 33.9193 8.08473 34.1447 9.06991 34.1447C10.0551 34.1447 10.9848 33.9193 11.805 33.5228C11.805 33.5228 11.8058 33.5228 11.8065 33.5228H14.6214C14.816 33.5228 14.9732 33.3757 14.9732 33.1935C14.9732 33.0114 14.816 32.8643 14.6214 32.8643H12.873C14.2023 31.8371 15.0514 30.2831 15.0514 28.5477ZM3.79214 28.5477C3.79214 25.8245 6.15971 23.6092 9.06991 23.6092C11.9801 23.6092 14.3477 25.8245 14.3477 28.5477C14.3477 31.2708 11.9801 33.4862 9.06991 33.4862C6.15971 33.4862 3.79214 31.2708 3.79214 28.5477Z" fill="#FFB800"/>
<path id="Vector_6" d="M23.6131 25.3511C21.7295 25.3511 20.197 26.7851 20.197 28.5476C20.197 30.3101 21.7295 31.7441 23.6131 31.7441C25.4967 31.7441 27.0292 30.3101 27.0292 28.5476C27.0292 26.7851 25.4967 25.3511 23.6131 25.3511ZM23.6131 31.0856C22.1174 31.0856 20.9007 29.9472 20.9007 28.5476C20.9007 27.148 22.1174 26.0095 23.6131 26.0095C25.1089 26.0095 26.3255 27.148 26.3255 28.5476C26.3255 29.9472 25.1089 31.0856 23.6131 31.0856Z" fill="#FFB800"/>
<path id="Vector_7" d="M23.6132 27.231C22.8376 27.231 22.2058 27.8221 22.2058 28.5479C22.2058 29.2737 22.8376 29.8648 23.6132 29.8648C24.3889 29.8648 25.0206 29.2737 25.0206 28.5479C25.0206 27.8221 24.3889 27.231 23.6132 27.231ZM23.6132 29.2064C23.2254 29.2064 22.9095 28.9108 22.9095 28.5479C22.9095 28.185 23.2254 27.8894 23.6132 27.8894C24.001 27.8894 24.3169 28.185 24.3169 28.5479C24.3169 28.9108 24.001 29.2064 23.6132 29.2064Z" fill="#FFB800"/>
<path id="Vector_8" d="M68.8065 25.3511C66.9229 25.3511 65.3904 26.7851 65.3904 28.5476C65.3904 30.3101 66.9229 31.7441 68.8065 31.7441C70.6901 31.7441 72.2226 30.3101 72.2226 28.5476C72.2226 26.7851 70.6901 25.3511 68.8065 25.3511ZM68.8065 31.0856C67.3107 31.0856 66.0941 29.9472 66.0941 28.5476C66.0941 27.148 67.3107 26.0095 68.8065 26.0095C70.3022 26.0095 71.5189 27.148 71.5189 28.5476C71.5189 29.9472 70.3022 31.0856 68.8065 31.0856Z" fill="#FFB800"/>
<path id="Vector_9" d="M68.8066 27.231C68.0309 27.231 67.3992 27.8221 67.3992 28.5479C67.3992 29.2737 68.0309 29.8648 68.8066 29.8648C69.5822 29.8648 70.214 29.2737 70.214 28.5479C70.214 27.8221 69.5822 27.231 68.8066 27.231ZM68.8066 29.2064C68.4188 29.2064 68.1029 28.9108 68.1029 28.5479C68.1029 28.185 68.4188 27.8894 68.8066 27.8894C69.1944 27.8894 69.5103 28.185 69.5103 28.5479C69.5103 28.9108 69.1944 29.2064 68.8066 29.2064Z" fill="#FFB800"/>
<path id="Vector_10" d="M75.9406 21.0424C75.9359 21.0358 75.8992 20.9854 75.8233 20.9034C75.8116 20.8873 75.7991 20.8712 75.7842 20.8566C75.778 20.85 75.7545 20.8281 75.7178 20.7937C75.4973 20.5756 75.0969 20.2354 74.4362 19.8506V17.6455C74.4362 16.687 74.0468 15.5991 72.9499 15.4184L60.3278 13.4539L58.9438 8.45397C58.9422 8.44958 58.9415 8.44519 58.9399 8.4408C58.5685 7.29945 57.7936 6.74414 56.5708 6.74414H48.4391C47.3827 6.74414 46.5234 7.5482 46.5234 8.53664V20.6817C46.5234 21.6702 47.3827 22.4742 48.4391 22.4742H58.7601C59.4286 22.4742 59.972 22.9827 59.972 23.6083V25.8763C59.972 26.0585 60.1292 26.2056 60.3238 26.2056H62.4827C62.6101 26.2056 62.7282 26.1412 62.7899 26.0366L64.2255 23.6258C64.6946 22.8854 65.5711 22.3279 66.2662 22.3279H70.9576C71.7051 22.3279 72.7442 23.0354 73.0664 23.609L73.6137 24.6333C73.6731 24.7445 73.7951 24.8155 73.9288 24.8155H75.6489C75.8436 24.8155 76.0008 24.6684 76.0008 24.4862V21.2246C76.0008 21.1595 75.9805 21.0958 75.9414 21.0417L75.9406 21.0424ZM75.2963 24.1577H74.2017V21.8897C74.2017 21.7075 74.0445 21.5604 73.8498 21.5604C73.6551 21.5604 73.498 21.7075 73.498 21.8897V23.0244C72.9522 22.3374 71.8685 21.6702 70.9568 21.6702H66.2655C65.31 21.6702 64.2208 22.3382 63.6172 23.2951C63.6156 23.2973 63.6141 23.3002 63.6125 23.3024L62.2754 25.5478H60.9994L62.4694 21.3336C62.5296 21.161 62.4287 20.9751 62.2442 20.9188C62.0596 20.8624 61.861 20.9568 61.8008 21.1295L60.6757 24.356V23.6097C60.6757 22.6213 59.8164 21.8172 58.7601 21.8172H48.4391C47.7706 21.8172 47.2271 21.3087 47.2271 20.6832V8.53737C47.2271 7.9228 47.7518 7.42236 48.4039 7.4048C48.4031 7.41505 48.4 7.42456 48.4 7.43553V18.2966C48.4 18.4217 48.3734 19.326 49.0294 19.9823C49.4696 20.4227 50.1006 20.6459 50.9028 20.6459H56.3237C56.5184 20.6459 56.6755 20.4988 56.6755 20.3167C56.6755 20.1345 56.5184 19.9874 56.3237 19.9874H50.9028C50.3055 19.9874 49.8496 19.836 49.5478 19.536C49.0646 19.0568 49.1029 18.3325 49.1029 18.3266C49.1029 18.3193 49.1029 18.312 49.1029 18.3047V7.43553C49.1029 7.42456 49.1021 7.41432 49.1006 7.40334H56.57C57.4762 7.40334 57.9836 7.76916 58.2643 8.62663L59.7038 13.8271C59.739 13.9529 59.8492 14.048 59.9869 14.0692L72.831 16.0681C73.6887 16.2093 73.7325 17.4077 73.7325 17.6462V19.5104C73.3533 19.3531 72.942 19.2331 72.5175 19.1914C70.9349 19.0356 65.8753 18.4715 65.8245 18.4656C65.6321 18.4444 65.4562 18.5732 65.4335 18.7539C65.4108 18.9346 65.5485 19.0985 65.7416 19.1197C65.7924 19.1256 70.8567 19.6896 72.444 19.8462C73.7489 19.975 74.9828 21.0439 75.2314 21.2707C75.2572 21.297 75.2791 21.3197 75.2963 21.3387V24.1577Z" fill="#FFB800"/>
<path id="Vector_11" d="M57.3815 9.85239L57.3776 9.83776C57.0351 8.70812 56.3955 8.13525 55.4752 8.13525H52.1913C51.1349 8.13525 50.2756 8.93932 50.2756 9.92775V12.4153C50.2756 13.4037 51.1349 14.2078 52.1913 14.2078H56.1007C56.7075 14.2078 57.3111 13.9517 57.6763 13.5398C57.9773 13.2003 58.0961 12.7789 58.0101 12.3546L57.3815 9.85239ZM57.1344 13.1199C56.903 13.3811 56.4972 13.5493 56.1007 13.5493H52.1913C51.5228 13.5493 50.9793 13.0408 50.9793 12.4153V9.92775C50.9793 9.30221 51.5228 8.79372 52.1913 8.79372H55.4752C55.8411 8.79372 56.3658 8.9203 56.6981 10.0104L57.3197 12.4826C57.3643 12.7153 57.3025 12.9296 57.1344 13.1191V13.1199Z" fill="#FFB800"/>
<path id="Vector_12" d="M57.2738 22.9872H45.819V2.89222C45.819 1.24751 44.5109 0.883161 44.4554 0.868528C44.2678 0.818777 44.0738 0.921206 44.0215 1.09607C43.9691 1.27093 44.0778 1.4531 44.2646 1.50212C44.2732 1.50432 45.1161 1.74063 45.1161 2.89222V22.988H44.4124V4.06283C44.4124 2.41813 43.1043 2.05377 43.0488 2.03914C42.8611 1.98939 42.6657 2.09109 42.6125 2.26595C42.5593 2.44081 42.6664 2.62225 42.8533 2.672C42.8885 2.68224 43.7087 2.931 43.7087 4.06357V22.9887H26.8354L27.7581 23.5886C28.9223 24.3451 29.7996 25.4543 30.2289 26.7105L30.3071 26.9395H40.0338V29.3905C40.0338 30.3789 40.8931 31.183 41.9494 31.183H55.9453C57.0017 31.183 57.861 30.3789 57.861 29.3905V26.8524C58.6311 26.6198 59.1902 25.9445 59.1902 25.147V24.7812C59.1902 24.1271 59.1652 23.6406 58.843 23.3326C58.5396 23.0421 58.0768 22.9887 57.2745 22.9887L57.2738 22.9872ZM57.1565 29.389C57.1565 30.0146 56.6131 30.523 55.9445 30.523H55.2017V27.0112C55.2017 26.829 55.0446 26.682 54.8499 26.682C54.6552 26.682 54.498 26.829 54.498 27.0112V30.523H49.1812V27.0112C49.1812 26.829 49.024 26.682 48.8293 26.682C48.6346 26.682 48.4775 26.829 48.4775 27.0112V30.523H43.3952V27.0112C43.3952 26.829 43.238 26.682 43.0433 26.682C42.8486 26.682 42.6915 26.829 42.6915 27.0112V30.523H41.9487C41.2801 30.523 40.7367 30.0146 40.7367 29.389V26.1698C40.7367 25.5443 41.2801 25.0358 41.9487 25.0358H45.5845V28.4745C45.5845 28.6567 45.7416 28.8037 45.9363 28.8037C46.131 28.8037 46.2882 28.6567 46.2882 28.4745V25.0358H51.4487V28.4745C51.4487 28.6567 51.6058 28.8037 51.8005 28.8037C51.9952 28.8037 52.1524 28.6567 52.1524 28.4745V25.0358H55.9445C56.6131 25.0358 57.1565 25.5443 57.1565 26.1698V29.389ZM58.4857 25.1455C58.4857 25.5721 58.2324 25.943 57.8594 26.1362C57.8399 25.1631 56.9892 24.3773 55.9445 24.3773H41.9487C40.8923 24.3773 40.033 25.1814 40.033 26.1698V26.2796H30.8153C30.4298 25.2787 29.7855 24.3715 28.9536 23.6457H57.2745C57.8227 23.6457 58.2136 23.6706 58.3403 23.7913C58.4755 23.9208 58.4865 24.3503 58.4865 24.7797V25.1455H58.4857Z" fill="#FFB800"/>
<path id="Vector_13" d="M53.9507 15.0127H50.7449C50.5502 15.0127 50.3931 15.1598 50.3931 15.3419C50.3931 15.5241 50.5502 15.6712 50.7449 15.6712H53.9507C54.1454 15.6712 54.3025 15.5241 54.3025 15.3419C54.3025 15.1598 54.1454 15.0127 53.9507 15.0127Z" fill="#FFB800"/>
<path id="Vector_14" d="M64.277 15.7092L60.8774 15.2161C60.8257 15.2087 60.7734 15.2051 60.721 15.2051C60.2167 15.2051 59.7944 15.5438 59.717 16.0106C59.6756 16.2616 59.7405 16.5125 59.9015 16.7181C60.0618 16.9229 60.298 17.0576 60.5662 17.0963L63.9658 17.5895C64.0174 17.5968 64.0698 17.6004 64.1222 17.6004C64.6265 17.6004 65.0488 17.2617 65.1262 16.7949C65.1676 16.544 65.1027 16.2923 64.9416 16.0874C64.7813 15.8826 64.5452 15.7479 64.277 15.7092ZM64.4303 16.6939C64.4045 16.8505 64.2426 16.9632 64.073 16.9383L60.6733 16.4452C60.5028 16.4203 60.3855 16.2703 60.4121 16.1116C60.4356 15.9704 60.5677 15.8635 60.7202 15.8635C60.7366 15.8635 60.7523 15.865 60.7687 15.8672L64.1683 16.3603C64.2512 16.372 64.3232 16.4137 64.3732 16.4767C64.4225 16.5396 64.4428 16.6171 64.4295 16.6939H64.4303Z" fill="#FFB800"/>
<path id="Vector_15" d="M31.9011 32.8643H27.4162C28.7454 31.8371 29.5946 30.2831 29.5946 28.5477C29.5946 25.4616 26.9111 22.9507 23.6131 22.9507C20.315 22.9507 17.6316 25.4616 17.6316 28.5477C17.6316 30.2831 18.4799 31.8371 19.8099 32.8643H17.9834C17.7888 32.8643 17.6316 33.0114 17.6316 33.1935C17.6316 33.3757 17.7888 33.5228 17.9834 33.5228H20.7983C20.8209 33.5228 20.8436 33.5206 20.8647 33.5162C21.6881 33.9164 22.6224 34.1447 23.6131 34.1447C24.6037 34.1447 25.5279 33.9193 26.3481 33.5228H31.9011C32.0958 33.5228 32.253 33.3757 32.253 33.1935C32.253 33.0114 32.0958 32.8643 31.9011 32.8643ZM18.3353 28.5477C18.3353 25.8245 20.7029 23.6092 23.6131 23.6092C26.5233 23.6092 28.8909 25.8245 28.8909 28.5477C28.8909 31.2708 26.5233 33.4862 23.6131 33.4862C20.7029 33.4862 18.3353 31.2708 18.3353 28.5477Z" fill="#FFB800"/>
<path id="Vector_16" d="M75.218 32.8643H72.6096C73.9388 31.8371 74.788 30.2831 74.788 28.5477C74.788 25.4616 72.1045 22.9507 68.8065 22.9507C65.5085 22.9507 62.825 25.4616 62.825 28.5477C62.825 30.2831 63.6734 31.8371 65.0034 32.8643H60.4402C60.2455 32.8643 60.0884 33.0114 60.0884 33.1935C60.0884 33.3757 60.2455 33.5228 60.4402 33.5228H66.0699C66.0699 33.5228 66.0706 33.5228 66.0714 33.5228C66.8916 33.9193 67.8213 34.1447 68.8065 34.1447C69.7917 34.1447 70.7213 33.9193 71.5415 33.5228H75.218C75.4127 33.5228 75.5699 33.3757 75.5699 33.1935C75.5699 33.0114 75.4127 32.8643 75.218 32.8643ZM63.5287 28.5477C63.5287 25.8245 65.8963 23.6092 68.8065 23.6092C71.7167 23.6092 74.0843 25.8245 74.0843 28.5477C74.0843 31.2708 71.7167 33.4862 68.8065 33.4862C65.8963 33.4862 63.5287 31.2708 63.5287 28.5477Z" fill="#FFB800"/>
</g>
<defs>
<clipPath id="clip0_44_3436">
<rect width="76" height="33.2893" fill="white" transform="translate(0 0.855469)"/>
</clipPath>
</defs>
</svg>
