<svg width="76" height="77" viewBox="0 0 76 77" fill="none" xmlns="http://www.w3.org/2000/svg">
<g id="vuesax/linear/building">
<g id="building">
<path id="Vector" d="M39.5833 70.167H12.9199C9.24661 70.167 6.23828 67.222 6.23828 63.612V16.6187C6.23828 8.32199 12.4133 4.55366 19.9816 8.25866L34.0416 15.162C37.0816 16.6503 39.5833 20.6087 39.5833 23.9653V70.167Z" stroke="#FFB800" stroke-width="3" stroke-linecap="round" stroke-linejoin="round"/>
<path id="Vector_2" d="M69.5713 48.1903V60.1603C69.5713 67.0003 66.4047 70.167 59.5647 70.167H39.583V33.497L41.0713 33.8137L55.3213 37.012L61.7497 38.437C65.9297 39.3553 69.3497 41.5087 69.5397 47.5887C69.5713 47.7787 69.5713 47.9687 69.5713 48.1903Z" stroke="#FFB800" stroke-width="3" stroke-linecap="round" stroke-linejoin="round"/>
<path id="Vector_3" d="M17.417 29.0003H28.4053" stroke="#FFB800" stroke-width="3" stroke-linecap="round" stroke-linejoin="round"/>
<path id="Vector_4" d="M17.417 41.667H28.4053" stroke="#FFB800" stroke-width="3" stroke-linecap="round" stroke-linejoin="round"/>
<path id="Vector_5" d="M55.3213 37.012V47.2087C55.3213 51.1353 52.123 54.3337 48.1963 54.3337C44.2696 54.3337 41.0713 51.1353 41.0713 47.2087V33.8137L55.3213 37.012Z" stroke="#FFB800" stroke-width="3" stroke-linecap="round" stroke-linejoin="round"/>
<path id="Vector_6" d="M69.5396 47.5887C69.3496 51.3253 66.2463 54.3337 62.4463 54.3337C58.5196 54.3337 55.3213 51.1353 55.3213 47.2087V37.012L61.7496 38.437C65.9296 39.3553 69.3496 41.5087 69.5396 47.5887Z" stroke="#FFB800" stroke-width="3" stroke-linecap="round" stroke-linejoin="round"/>
</g>
</g>
</svg>
