<svg width="82" height="39" viewBox="0 0 82 39" fill="none" xmlns="http://www.w3.org/2000/svg">
<g id="Compact" clip-path="url(#clip0_47_4917)">
<path id="Vector" d="M2.5464 32.8368H3.82987L3.8477 32.2827C3.85789 31.9587 3.86298 31.6676 3.86298 31.3957C3.86298 26.5718 7.7949 22.649 12.627 22.649C17.4592 22.649 21.3911 26.5731 21.3911 31.3957C21.3911 31.6638 21.3962 31.9536 21.4064 32.2814L21.4229 32.8355H56.301L56.3175 32.2814C56.329 31.9243 56.3341 31.6066 56.3341 31.3106C56.3341 26.6062 60.4824 22.4787 65.2127 22.4787C69.943 22.4787 74.0914 26.6062 74.0914 31.3106C74.0914 31.6054 74.0965 31.9129 74.1067 32.2802L74.1232 32.8355H77.7967C79.1655 32.8355 80.4922 31.6283 80.2796 30.3575C80.0669 29.0867 77.9864 18.8608 77.9864 18.8608C77.6897 17.6078 76.8735 16.7297 75.5659 16.4438L59.6408 13.1766C58.6362 12.4269 50.6017 6.43773 49.9129 5.87605C49.2966 5.37409 47.1218 3.73607 45.0514 3.73607H22.1538C21.6458 3.73607 21.1505 3.75132 20.6666 3.78309L18.4409 0.266861C18.2716 -1.67012e-06 17.9176 -0.0800603 17.6502 0.0889524C17.3828 0.257965 17.3026 0.61124 17.4719 0.878102L19.387 3.90381C10.4905 4.99922 5.94863 11.3366 2.95258 16.9241C0.0634766 22.3135 0.0634766 26.4041 0.0634766 30.3587C0.0634766 31.6791 1.22345 32.8368 2.5464 32.8368ZM3.96357 17.4617C3.98649 17.4185 4.00941 17.3753 4.0336 17.3333H6.79664C6.84885 17.421 6.87559 17.5583 6.87559 17.7565C6.87559 18.1771 6.87559 19.4593 4.1482 19.8101C3.83497 19.8507 3.61214 20.1367 3.65289 20.4505C3.68981 20.739 3.93683 20.95 4.22077 20.95C4.24497 20.95 4.27043 20.9487 4.29463 20.9449C7.53643 20.5281 8.02155 18.7693 8.02155 17.7578C8.02155 17.604 8.01009 17.4642 7.98845 17.3346H14.3243C14.6414 17.3346 14.8973 17.0792 14.8973 16.7628C14.8973 16.4463 14.6414 16.1909 14.3243 16.1909H4.67025C7.8382 10.6745 12.7404 4.88103 22.1551 4.88103H28.2631C28.0734 7.35015 27.0738 20.3845 26.9949 21.7061C26.8535 24.0532 27.2826 25.7204 28.3051 26.8057C29.3123 27.8731 30.9026 28.3916 33.1691 28.3916H45.3927C45.7097 28.3916 45.9656 28.1362 45.9656 27.8197C45.9656 27.5033 45.7097 27.2479 45.3927 27.2479H33.1691C31.2362 27.2479 29.9184 26.8463 29.1391 26.0216C28.3446 25.1791 28.0173 23.7901 28.1383 21.7747C28.2172 20.4645 29.2461 7.05024 29.4129 4.88103H45.054C46.7895 4.88103 48.8038 6.44917 49.1909 6.76432C49.9421 7.37556 58.6884 13.8946 59.0602 14.1717L59.162 14.2479L73.2217 17.1326C73.2179 17.2418 73.2141 17.3524 73.2141 17.4617C73.2141 20.0363 74.1996 22.2576 75.6665 22.9895C75.7492 23.0302 75.8358 23.0505 75.9224 23.0505C76.1325 23.0505 76.3349 22.9349 76.4355 22.7341C76.5769 22.452 76.4623 22.1076 76.1796 21.9666C75.2756 21.5154 74.3601 19.8228 74.3601 17.4604C74.3601 17.4286 74.3613 17.3969 74.3626 17.3651L75.506 17.5875C76.2382 17.7463 76.694 18.2025 76.843 18.9218L78.4995 27.2454H76.5883C76.2713 27.2454 76.0153 27.5008 76.0153 27.8172C76.0153 28.1336 76.2713 28.3891 76.5883 28.3891H78.6256C78.66 28.3891 78.6943 28.3852 78.7262 28.3789C78.7262 28.3789 79.084 29.8263 79.1336 30.4109C79.182 30.9941 78.5174 31.6931 77.7979 31.6931H75.2412C75.2386 31.5609 75.2386 31.4351 75.2386 31.3118C75.2386 28.689 74.1372 26.1817 72.1369 24.2514C70.2168 22.3986 67.6944 21.3363 65.2127 21.3363C62.7311 21.3363 60.2087 22.3986 58.2886 24.2514C56.2882 26.1817 55.1868 28.689 55.1868 31.3118C55.1868 31.4338 55.1868 31.5609 55.1843 31.6931H22.5396C22.5384 31.5901 22.5371 31.4923 22.5371 31.397C22.5371 25.9428 18.0907 21.5065 12.627 21.5065C7.16335 21.5065 2.71574 25.9428 2.71574 31.397C2.71574 31.4936 2.71574 31.5914 2.7132 31.6931H2.54512C1.79261 31.6931 1.20817 30.9763 1.20817 30.3587C1.20817 29.6979 1.20817 29.0448 1.2209 28.3891H1.84481C2.16186 28.3891 2.41779 28.1336 2.41779 27.8172C2.41779 27.5008 2.16186 27.2454 1.84481 27.2454H1.25782C1.39661 24.3035 1.92885 21.2562 3.9623 17.4617H3.96357Z" fill="#FFB800"/>
<path id="Vector_2" d="M55.3496 23.447C55.3102 23.7609 55.533 24.0456 55.8475 24.085C55.8717 24.0875 55.8959 24.09 55.9188 24.09C56.204 24.09 56.4498 23.8778 56.4867 23.5894C56.9196 20.1316 55.7584 15.6025 55.7087 15.4119C55.6298 15.1057 55.3165 14.9227 55.0097 15.0015C54.7028 15.0803 54.5195 15.3929 54.5984 15.6991C54.6099 15.7436 55.7546 20.2053 55.3484 23.4483L55.3496 23.447Z" fill="#FFB800"/>
<path id="Vector_3" d="M52.3959 12.0596C52.3959 10.7609 49.8086 8.77977 48.2653 7.71359L48.1215 7.6132C47.0455 6.86726 46.1962 6.27762 43.9081 6.27762H32.9795C31.6183 6.27762 30.5093 7.37684 30.4965 8.73275L30.2432 12.0164V12.0609C30.2419 13.427 31.3547 14.5389 32.7248 14.5389H50.1689C51.46 14.5389 52.3972 13.4969 52.3972 12.0609L52.3959 12.0596ZM31.3866 12.08L31.64 8.8001V8.75562C31.6412 8.01985 32.241 7.42131 32.9782 7.42131H43.9069C45.8359 7.42131 46.4853 7.87117 47.467 8.5523L47.6134 8.65396C49.8595 10.2056 51.2499 11.6301 51.2499 12.0596C51.2499 12.6747 50.966 13.3939 50.1676 13.3939H32.7235C31.9927 13.3939 31.398 12.8068 31.3866 12.08Z" fill="#FFB800"/>
<path id="Vector_4" d="M12.5416 27.6266C10.4355 27.6266 8.72168 29.337 8.72168 31.4389C8.72168 33.5408 10.4355 35.2512 12.5416 35.2512C14.6476 35.2512 16.3614 33.5408 16.3614 31.4389C16.3614 29.337 14.6476 27.6266 12.5416 27.6266ZM12.5416 34.1075C11.0671 34.1075 9.86764 32.9105 9.86764 31.4389C9.86764 29.9673 11.0671 28.7703 12.5416 28.7703C14.016 28.7703 15.2155 29.9673 15.2155 31.4389C15.2155 32.9105 14.016 34.1075 12.5416 34.1075Z" fill="#FFB800"/>
<path id="Vector_5" d="M65.1285 27.6266C63.0224 27.6266 61.3086 29.337 61.3086 31.4389C61.3086 33.5408 63.0224 35.2512 65.1285 35.2512C67.2345 35.2512 68.9483 33.5408 68.9483 31.4389C68.9483 29.337 67.2345 27.6266 65.1285 27.6266ZM65.1285 34.1075C63.654 34.1075 62.4546 32.9105 62.4546 31.4389C62.4546 29.9673 63.654 28.7703 65.1285 28.7703C66.6029 28.7703 67.8024 29.9673 67.8024 31.4389C67.8024 32.9105 66.6029 34.1075 65.1285 34.1075Z" fill="#FFB800"/>
<path id="Vector_6" d="M36.9889 16.1896H30.7497C30.4327 16.1896 30.1768 16.4451 30.1768 16.7615C30.1768 17.0779 30.4327 17.3333 30.7497 17.3333H36.9889C37.3059 17.3333 37.5618 17.0779 37.5618 16.7615C37.5618 16.4451 37.3059 16.1896 36.9889 16.1896Z" fill="#FFB800"/>
<path id="Vector_7" d="M26.0976 12.3405C26.2606 11.3798 26.6362 7.87879 26.7368 6.84057C26.7521 6.68045 26.6999 6.52034 26.5904 6.40088C26.4821 6.28143 26.3281 6.21408 26.1664 6.21408C16.1863 6.21408 11.1288 9.33129 9.83002 12.0012C9.5066 12.6658 9.47859 13.2186 9.74598 13.6443C10.0121 14.0687 10.5252 14.2848 11.2688 14.2848H23.5879C25.1172 14.2848 25.8671 13.704 26.0976 12.3417V12.3405ZM10.7175 13.0369C10.7175 13.0369 10.6678 12.8958 10.8601 12.4993C11.7692 10.63 15.8794 7.49375 25.531 7.36159C25.3858 8.76452 25.1006 11.3594 24.9669 12.1499C24.8536 12.8234 24.6804 13.1398 23.5867 13.1398H11.2676C10.8219 13.1398 10.7175 13.0369 10.7162 13.0369H10.7175Z" fill="#FFB800"/>
<path id="Vector_8" d="M22.8556 37.2845H17.341C19.0344 35.8968 20.118 33.7911 20.118 31.4389C20.118 27.2695 16.7196 23.8778 12.5419 23.8778C8.36425 23.8778 4.96584 27.2695 4.96584 31.4389C4.96584 33.7911 6.04814 35.8968 7.74289 37.2845H0.572981C0.255932 37.2845 0 37.5399 0 37.8563C0 38.1727 0.255932 38.4282 0.572981 38.4282H9.61335C9.62481 38.4282 9.635 38.4256 9.64646 38.4243C10.539 38.7941 11.5169 39 12.5419 39C13.5669 39 14.5448 38.7941 15.4374 38.4243C15.4489 38.4243 15.459 38.4282 15.4705 38.4282H22.8556C23.1726 38.4282 23.4286 38.1727 23.4286 37.8563C23.4286 37.5399 23.1726 37.2845 22.8556 37.2845ZM6.1118 31.4389C6.1118 27.8998 8.99581 25.0215 12.5419 25.0215C16.088 25.0215 18.9721 27.8998 18.9721 31.4389C18.9721 34.978 16.088 37.8563 12.5419 37.8563C8.99581 37.8563 6.1118 34.978 6.1118 31.4389Z" fill="#FFB800"/>
<path id="Vector_9" d="M81.427 37.2845H69.9279C71.6214 35.8968 72.7049 33.7911 72.7049 31.4389C72.7049 27.2695 69.3065 23.8778 65.1288 23.8778C60.9512 23.8778 57.5527 27.2695 57.5527 31.4389C57.5527 33.7911 58.635 35.8968 60.3298 37.2845H54.8152C54.4981 37.2845 54.2422 37.5399 54.2422 37.8563C54.2422 38.1727 54.4981 38.4282 54.8152 38.4282H62.2003C62.2117 38.4282 62.2219 38.4256 62.2334 38.4243C63.1259 38.7941 64.1038 39 65.1288 39C66.1538 39 67.1317 38.7941 68.0243 38.4243C68.0358 38.4243 68.0459 38.4282 68.0574 38.4282H81.427C81.744 38.4282 82 38.1727 82 37.8563C82 37.5399 81.744 37.2845 81.427 37.2845ZM58.6987 31.4389C58.6987 27.8998 61.5827 25.0215 65.1288 25.0215C68.675 25.0215 71.559 27.8998 71.559 31.4389C71.559 34.978 68.675 37.8563 65.1288 37.8563C61.5827 37.8563 58.6987 34.978 58.6987 31.4389Z" fill="#FFB800"/>
<path id="Vector_10" d="M13.3571 31.43L13.9416 30.8467C14.1657 30.6231 14.1657 30.2609 13.9416 30.0385C13.7175 29.8149 13.3546 29.8149 13.1318 30.0385L12.5473 30.6218L11.9476 30.022C11.7235 29.7983 11.3606 29.7983 11.1378 30.022C10.9137 30.2456 10.9137 30.6078 11.1378 30.8302L11.7388 31.43L11.1531 32.0146C10.929 32.2382 10.929 32.6004 11.1531 32.8228C11.2651 32.9346 11.4116 32.9905 11.558 32.9905C11.7044 32.9905 11.8508 32.9346 11.9629 32.8228L12.5486 32.2382L13.1445 32.8342C13.2566 32.946 13.403 33.002 13.5494 33.002C13.6958 33.002 13.8423 32.946 13.9543 32.8342C14.1784 32.6106 14.1784 32.2484 13.9543 32.026L13.3584 31.43H13.3571Z" fill="#FFB800"/>
<path id="Vector_11" d="M65.9441 31.43L66.5285 30.8467C66.7526 30.6231 66.7526 30.2609 66.5285 30.0385C66.3044 29.8149 65.9415 29.8149 65.7187 30.0385L65.1343 30.6218L64.5345 30.022C64.3104 29.7983 63.9488 29.7983 63.7247 30.022C63.5006 30.2456 63.5006 30.6078 63.7247 30.8302L64.3257 31.43L63.74 32.0146C63.5159 32.2382 63.5159 32.6004 63.74 32.8228C63.852 32.9346 63.9985 32.9905 64.1449 32.9905C64.2913 32.9905 64.4378 32.9346 64.5498 32.8228L65.1355 32.2382L65.7314 32.8342C65.8435 32.946 65.9899 33.002 66.1363 33.002C66.2828 33.002 66.4292 32.946 66.5412 32.8342C66.7653 32.6106 66.7653 32.2484 66.5412 32.026L65.9453 31.43H65.9441Z" fill="#FFB800"/>
</g>
<defs>
<clipPath id="clip0_47_4917">
<rect width="82" height="39" fill="white"/>
</clipPath>
</defs>
</svg>
