<svg width="18" height="19" viewBox="0 0 18 19" fill="none" xmlns="http://www.w3.org/2000/svg">
<g id="vuesax/broken/edit">
<g id="edit">
<path id="Vector" d="M16.5 10.25V11.75C16.5 15.5 15 17 11.25 17H6.75C3 17 1.5 15.5 1.5 11.75V10.61" stroke="#FFB800" stroke-width="1.5" stroke-linecap="round" stroke-linejoin="round"/>
<path id="Vector_2" d="M8.25 2H6.75C3 2 1.5 3.5 1.5 7.25" stroke="#FFB800" stroke-width="1.5" stroke-linecap="round" stroke-linejoin="round"/>
<path id="Vector_3" d="M14.9474 7.25751L15.7349 6.47001C16.7549 5.45001 17.2349 4.26501 15.7349 2.76501C14.2349 1.26501 13.0499 1.74501 12.0299 2.76501L6.11991 8.67501C5.89491 8.90001 5.66991 9.34251 5.62491 9.66501L5.30241 11.9225C5.18241 12.74 5.75991 13.31 6.57741 13.1975L8.83491 12.875C9.14991 12.83 9.59241 12.605 9.82491 12.38L12.2099 9.99501L12.7574 9.44751" stroke="#FFB800" stroke-width="1.5" stroke-miterlimit="10" stroke-linecap="round" stroke-linejoin="round"/>
<path id="Vector_4" d="M11.1826 3.61249C11.6851 5.40499 13.0876 6.80749 14.8876 7.31749" stroke="#FFB800" stroke-width="1.5" stroke-miterlimit="10" stroke-linecap="round" stroke-linejoin="round"/>
</g>
</g>
</svg>
