<svg width="76" height="77" viewBox="0 0 76 77" fill="none" xmlns="http://www.w3.org/2000/svg">
<g id="vuesax/linear/information">
<g id="information">
<path id="Vector" d="M34.0421 8.25831C36.2588 6.38997 39.8371 6.38997 41.9904 8.25831L46.9938 12.5333C47.9438 13.325 49.7488 13.99 51.0154 13.99H56.3988C59.7554 13.99 62.5104 16.745 62.5104 20.1016V25.485C62.5104 26.7516 63.1754 28.525 63.9671 29.475L68.2421 34.4783C70.1104 36.695 70.1104 40.2733 68.2421 42.4266L63.9671 47.43C63.1754 48.38 62.5104 50.1533 62.5104 51.42V56.8033C62.5104 60.16 59.7554 62.915 56.3988 62.915H51.0154C49.7488 62.915 47.9754 63.58 47.0254 64.3716L42.0221 68.6466C39.8054 70.515 36.2271 70.515 34.0738 68.6466L29.0704 64.3716C28.1204 63.58 26.3154 62.915 25.0804 62.915H19.5388C16.1821 62.915 13.4271 60.16 13.4271 56.8033V51.3883C13.4271 50.1533 12.7938 48.3483 12.0021 47.43L7.72711 42.395C5.89044 40.21 5.89044 36.6633 7.72711 34.4783L12.0021 29.4433C12.7938 28.4933 13.4271 26.72 13.4271 25.485V20.1333C13.4271 16.7766 16.1821 14.0216 19.5388 14.0216H25.0171C26.2838 14.0216 28.0571 13.3566 29.0071 12.565L34.0421 8.25831Z" stroke="#FFB800" stroke-width="5" stroke-linecap="round" stroke-linejoin="round"/>
<path id="Vector_2" d="M38 26.245V41.54" stroke="#FFB800" stroke-width="5" stroke-linecap="round" stroke-linejoin="round"/>
<path id="Vector_3" d="M37.9824 51.1667H38.0109" stroke="#FFB800" stroke-width="5" stroke-linecap="round" stroke-linejoin="round"/>
</g>
</g>
</svg>
