<svg width="16" height="16" viewBox="0 0 16 16" fill="none" xmlns="http://www.w3.org/2000/svg">
<g id="vuesax/outline/messages">
<g id="messages">
<path id="Vector" d="M4.84016 12.5934C4.78683 12.5934 4.7335 12.5867 4.68017 12.58C4.28017 12.5267 3.94017 12.2733 3.7735 11.9134L2.93349 10.0667C1.60016 9.08 0.833496 7.60669 0.833496 6.00669C0.833496 3.16003 3.30016 0.840027 6.3335 0.840027C8.4735 0.840027 10.4268 2.01335 11.3135 3.83335C11.6535 4.50669 11.8335 5.24003 11.8335 6.00669C11.8335 8.78003 9.4935 11.0534 6.5735 11.1667L5.7335 12.18C5.50683 12.44 5.18016 12.5934 4.84016 12.5934ZM6.3335 1.83335C3.8535 1.83335 1.8335 3.70002 1.8335 6.00002C1.8335 7.31335 2.48682 8.52668 3.62016 9.32668C3.69349 9.38001 3.75349 9.44667 3.78682 9.52667L4.68017 11.4933C4.7135 11.5667 4.78016 11.5867 4.8135 11.5867C4.84683 11.5934 4.9135 11.5867 4.96016 11.5333L5.94683 10.3467C6.04016 10.2334 6.18016 10.1667 6.3335 10.1667C8.8135 10.1667 10.8335 8.30002 10.8335 6.00002C10.8335 5.39335 10.6935 4.81334 10.4202 4.27334C9.70017 2.78667 8.0935 1.83335 6.3335 1.83335Z" fill="#162F65"/>
<path id="Vector_2" d="M11.1602 15.1666C10.8136 15.1666 10.4935 15.0133 10.2669 14.7466L9.42688 13.74C7.81355 13.6733 6.29355 12.9333 5.32021 11.7333C5.16688 11.5466 5.17355 11.28 5.32689 11.1L5.94688 10.3533C6.04022 10.24 6.18022 10.1733 6.33355 10.1733C8.81355 10.1733 10.8336 8.30664 10.8336 6.00664C10.8336 5.39998 10.6936 4.81996 10.4202 4.27996C10.3336 4.10663 10.3536 3.89997 10.4736 3.74663C10.5936 3.5933 10.7936 3.52662 10.9802 3.56662C13.4469 4.13329 15.1669 6.1933 15.1669 8.57997C15.1669 10.18 14.4002 11.6533 13.0669 12.64L12.2269 14.4866C12.0535 14.86 11.7136 15.1133 11.3069 15.16C11.2602 15.1666 11.2069 15.1666 11.1602 15.1666ZM6.37355 11.4C7.20688 12.2466 8.40688 12.74 9.66688 12.74C9.81355 12.74 9.95355 12.8066 10.0536 12.92L11.0402 14.1066C11.0869 14.1666 11.1469 14.1733 11.1869 14.1666C11.2135 14.1666 11.2869 14.1466 11.3269 14.0666L12.2202 12.1C12.2602 12.02 12.3136 11.9466 12.3869 11.9C13.5202 11.1 14.1735 9.88663 14.1735 8.57329C14.1735 6.97329 13.1936 5.55332 11.7002 4.85332C11.7936 5.22666 11.8402 5.60664 11.8402 5.99997C11.8402 8.7733 9.50021 11.0466 6.58021 11.16L6.37355 11.4Z" fill="#162F65"/>
<path id="Vector_3" d="M7.99984 6.5H4.6665C4.39317 6.5 4.1665 6.27333 4.1665 6C4.1665 5.72667 4.39317 5.5 4.6665 5.5H7.99984C8.27317 5.5 8.49984 5.72667 8.49984 6C8.49984 6.27333 8.27317 6.5 7.99984 6.5Z" fill="#162F65"/>
</g>
</g>
</svg>
