<svg width="16" height="16" viewBox="0 0 16 16" fill="none" xmlns="http://www.w3.org/2000/svg">
<g id="vuesax/outline/messages">
<g id="messages">
<path id="Vector" d="M4.83992 12.5933C4.78658 12.5933 4.73325 12.5866 4.67992 12.58C4.27992 12.5266 3.93992 12.2733 3.77325 11.9133L2.93325 10.0666C1.59991 9.07994 0.833252 7.60663 0.833252 6.00663C0.833252 3.15997 3.29992 0.839966 6.33325 0.839966C8.47325 0.839966 10.4266 2.01329 11.3133 3.83329C11.6533 4.50663 11.8333 5.23997 11.8333 6.00663C11.8333 8.77997 9.49325 11.0533 6.57325 11.1666L5.73326 12.18C5.50659 12.44 5.17991 12.5933 4.83992 12.5933ZM6.33325 1.83329C3.85325 1.83329 1.83325 3.69996 1.83325 5.99996C1.83325 7.31329 2.48658 8.52662 3.61991 9.32662C3.69325 9.37995 3.75325 9.44661 3.78658 9.52661L4.67992 11.4933C4.71325 11.5666 4.77992 11.5866 4.81325 11.5866C4.84659 11.5933 4.91325 11.5866 4.95992 11.5333L5.94658 10.3466C6.03992 10.2333 6.17992 10.1666 6.33325 10.1666C8.81325 10.1666 10.8333 8.29996 10.8333 5.99996C10.8333 5.39329 10.6933 4.81327 10.4199 4.27327C9.69992 2.78661 8.09325 1.83329 6.33325 1.83329Z" fill="white"/>
<path id="Vector_2" d="M11.16 15.1667C10.8133 15.1667 10.4933 15.0134 10.2666 14.7467L9.42664 13.74C7.81331 13.6734 6.2933 12.9333 5.31997 11.7333C5.16664 11.5467 5.17331 11.28 5.32664 11.1L5.94664 10.3534C6.03997 10.2401 6.17997 10.1734 6.33331 10.1734C8.81331 10.1734 10.8333 8.3067 10.8333 6.0067C10.8333 5.40004 10.6933 4.82002 10.42 4.28002C10.3333 4.10669 10.3533 3.90003 10.4733 3.7467C10.5933 3.59336 10.7933 3.52668 10.98 3.56668C13.4466 4.13335 15.1666 6.19336 15.1666 8.58003C15.1666 10.18 14.4 11.6534 13.0666 12.64L12.2266 14.4867C12.0533 14.86 11.7133 15.1134 11.3066 15.16C11.26 15.1667 11.2066 15.1667 11.16 15.1667ZM6.3733 11.4C7.20664 12.2467 8.40664 12.74 9.66664 12.74C9.81331 12.74 9.95331 12.8067 10.0533 12.92L11.04 14.1067C11.0866 14.1667 11.1466 14.1734 11.1866 14.1667C11.2133 14.1667 11.2866 14.1467 11.3266 14.0667L12.22 12.1C12.26 12.02 12.3133 11.9467 12.3866 11.9C13.52 11.1 14.1733 9.88669 14.1733 8.57336C14.1733 6.97336 13.1933 5.55338 11.7 4.85338C11.7933 5.22672 11.84 5.6067 11.84 6.00003C11.84 8.77337 9.49997 11.0467 6.57997 11.16L6.3733 11.4Z" fill="white"/>
<path id="Vector_3" d="M8.00008 6.5H4.66675C4.39341 6.5 4.16675 6.27333 4.16675 6C4.16675 5.72667 4.39341 5.5 4.66675 5.5H8.00008C8.27341 5.5 8.50008 5.72667 8.50008 6C8.50008 6.27333 8.27341 6.5 8.00008 6.5Z" fill="white"/>
</g>
</g>
</svg>
