<svg width="17" height="17" viewBox="0 0 17 17" fill="none" xmlns="http://www.w3.org/2000/svg">
<g id="paperclip">
<path id="Vector" d="M15.1867 7.82699L8.67709 14.3366C7.87961 15.134 6.79801 15.5821 5.67021 15.5821C4.54241 15.5821 3.46081 15.134 2.66334 14.3366C1.86586 13.5391 1.41785 12.4575 1.41785 11.3297C1.41785 10.2019 1.86586 9.12029 2.66334 8.32282L9.17292 1.81324C9.70457 1.28159 10.4256 0.98291 11.1775 0.98291C11.9294 0.98291 12.6504 1.28159 13.1821 1.81324C13.7137 2.34488 14.0124 3.06595 14.0124 3.81782C14.0124 4.56968 13.7137 5.29075 13.1821 5.8224L6.66542 12.332C6.39959 12.5978 6.03906 12.7471 5.66313 12.7471C5.28719 12.7471 4.92666 12.5978 4.66084 12.332C4.39501 12.0662 4.24567 11.7056 4.24567 11.3297C4.24567 10.9538 4.39501 10.5932 4.66084 10.3274L10.6746 4.32074" stroke="#989BA1" stroke-linecap="round" stroke-linejoin="round"/>
</g>
</svg>
