<svg width="12" height="12" viewBox="0 0 12 12" fill="none" xmlns="http://www.w3.org/2000/svg">
<g id="vuesax/outline/personalcard">
<g id="personalcard">
<path id="Vector" d="M8.5 10.875H3.5C1.295 10.875 0.625 10.205 0.625 8V4C0.625 1.795 1.295 1.125 3.5 1.125H8.5C10.705 1.125 11.375 1.795 11.375 4V8C11.375 10.205 10.705 10.875 8.5 10.875ZM3.5 1.875C1.71 1.875 1.375 2.215 1.375 4V8C1.375 9.785 1.71 10.125 3.5 10.125H8.5C10.29 10.125 10.625 9.785 10.625 8V4C10.625 2.215 10.29 1.875 8.5 1.875H3.5Z" fill="#FFB800"/>
<path id="Vector_2" d="M9.5 4.375H7C6.795 4.375 6.625 4.205 6.625 4C6.625 3.795 6.795 3.625 7 3.625H9.5C9.705 3.625 9.875 3.795 9.875 4C9.875 4.205 9.705 4.375 9.5 4.375Z" fill="#FFB800"/>
<path id="Vector_3" d="M9.5 6.375H7.5C7.295 6.375 7.125 6.205 7.125 6C7.125 5.795 7.295 5.625 7.5 5.625H9.5C9.705 5.625 9.875 5.795 9.875 6C9.875 6.205 9.705 6.375 9.5 6.375Z" fill="#FFB800"/>
<path id="Vector_4" d="M9.5 8.375H8.5C8.295 8.375 8.125 8.205 8.125 8C8.125 7.795 8.295 7.625 8.5 7.625H9.5C9.705 7.625 9.875 7.795 9.875 8C9.875 8.205 9.705 8.375 9.5 8.375Z" fill="#FFB800"/>
<path id="Vector_5" d="M4.24973 6.01999C3.54473 6.01999 2.96973 5.44499 2.96973 4.73999C2.96973 4.03499 3.54473 3.45999 4.24973 3.45999C4.95473 3.45999 5.52973 4.03499 5.52973 4.73999C5.52973 5.44499 4.95473 6.01999 4.24973 6.01999ZM4.24973 4.20999C3.95973 4.20999 3.71973 4.44999 3.71973 4.73999C3.71973 5.02999 3.95973 5.26999 4.24973 5.26999C4.53973 5.26999 4.77973 5.02999 4.77973 4.73999C4.77973 4.44999 4.53973 4.20999 4.24973 4.20999Z" fill="#FFB800"/>
<path id="Vector_6" d="M5.99995 8.54001C5.80995 8.54001 5.64495 8.395 5.62495 8.20001C5.56995 7.66 5.13495 7.22501 4.58995 7.17501C4.35995 7.15501 4.12995 7.15501 3.89995 7.17501C3.35495 7.22501 2.91995 7.655 2.86495 8.20001C2.84495 8.40501 2.65995 8.56001 2.45495 8.53501C2.24995 8.51501 2.09995 8.33001 2.11995 8.12501C2.20995 7.22501 2.92495 6.51 3.82995 6.43C4.10495 6.405 4.38495 6.405 4.65995 6.43C5.55995 6.515 6.27995 7.23001 6.36995 8.12501C6.38995 8.33001 6.23995 8.51501 6.03495 8.53501C6.02495 8.54001 6.00995 8.54001 5.99995 8.54001Z" fill="#FFB800"/>
</g>
</g>
</svg>
