<svg width="41" height="42" viewBox="0 0 41 42" fill="none" xmlns="http://www.w3.org/2000/svg">
<path d="M4.2 25.2C3.13333 25.2 2.22667 24.8533 1.48 24.16C0.786667 23.4133 0.44 22.48 0.44 21.36C0.44 20.2933 0.786667 19.44 1.48 18.8C2.22667 18.1067 3.13333 17.76 4.2 17.76H36.92C37.9867 17.76 38.8667 18.1067 39.56 18.8C40.3067 19.4933 40.68 20.4 40.68 21.52C40.68 22.5333 40.3067 23.4133 39.56 24.16C38.8667 24.8533 37.9867 25.2 36.92 25.2H4.2ZM20.44 41.36C19.2133 41.36 18.1733 40.96 17.32 40.16C16.52 39.36 16.12 38.32 16.12 37.04V4.96C16.12 3.73333 16.5467 2.72 17.4 1.92C18.2533 1.12 19.2933 0.719998 20.52 0.719998C21.8 0.719998 22.8133 1.12 23.56 1.92C24.36 2.72 24.76 3.73333 24.76 4.96V37.04C24.76 38.32 24.36 39.36 23.56 40.16C22.76 40.96 21.72 41.36 20.44 41.36Z" fill="#FFB800"/>
</svg>
