<svg width="76" height="81" viewBox="0 0 76 81" fill="none" xmlns="http://www.w3.org/2000/svg">
<g id="Group">
<g id="Group_2">
<g id="Group_3">
<g id="_x36_64_x2C__Auto_x2C__transport_x2C__truck_x2C__van">
<path id="Vector" d="M57.9127 51.5327C59.9593 51.5327 61.5081 53.1527 61.5081 55.1637C61.5081 57.2306 59.904 58.7947 57.9127 58.7947C55.8661 58.7947 54.3174 57.1747 54.3174 55.1637C54.3174 53.1527 55.9215 51.5327 57.9127 51.5327Z" fill="white"/>
<path id="Vector_2" d="M18.1979 51.5327C20.2445 51.5327 21.7932 53.1527 21.7932 55.1637C21.7932 57.2306 20.1891 58.7947 18.1979 58.7947C16.1513 58.7947 14.6025 57.1747 14.6025 55.1637C14.6025 53.1527 16.2066 51.5327 18.1979 51.5327Z" fill="white"/>
<path id="Vector_3" d="M7.3566 31.3667H1.88062V44.0473H7.3566V31.3667Z" fill="white"/>
<path id="Vector_4" d="M74.2299 29.6348H68.7539V42.3153H74.2299V29.6348Z" fill="white"/>
<path id="Vector_5" d="M61.5634 67.8442V74.2683C61.5634 76.7262 59.5168 78.7931 57.0831 78.7931C54.6493 78.7931 52.4368 76.7262 52.4368 74.2683V67.8442H61.5634Z" fill="white"/>
<path id="Vector_6" d="M14.6026 42.3155H13.6069C10.4541 42.3155 7.85437 44.6617 7.41187 47.8458V44.2148V31.3667V7.29042C7.41187 4.38563 9.73501 2.20703 12.4453 2.20703H63.6098C66.4861 2.20703 68.6433 4.55321 68.6433 7.29042V29.4674V42.3155V47.8458C68.2008 44.7734 65.6011 42.3155 62.4483 42.3155H14.6026Z" fill="white"/>
<path id="Vector_7" d="M61.5632 28.015V42.3155H14.6025V28.015C14.6025 25.8364 16.3172 24.0488 18.5298 24.0488H57.802C59.7932 24.1047 61.5632 25.8364 61.5632 28.015Z" fill="white"/>
<path id="Vector_8" d="M23.5632 67.8442V74.2683C23.5632 76.7262 21.5167 78.7931 19.0829 78.7931C16.6491 78.7931 14.6025 76.7262 14.6025 74.2683V67.8442H23.5632Z" fill="white"/>
<path id="Vector_9" d="M62.3931 69.7433H61.3975C60.4019 69.7433 59.5168 68.8495 59.5168 67.844C59.5168 66.8385 60.4019 65.9447 61.3975 65.9447H62.3931C64.8269 65.9447 66.8735 63.8778 66.8735 61.4199V48.4601C66.8735 48.2925 66.8735 48.0132 66.8735 47.9015C66.5969 45.7229 64.7163 43.9353 62.5591 43.9353H61.5634C60.5678 43.9353 59.6828 43.0415 59.6828 42.036C59.6828 41.0305 60.5678 40.1367 61.5634 40.1367H62.5591C66.5969 40.1367 70.0816 43.2091 70.5241 47.1194C70.5241 47.3987 70.5241 47.8456 70.5241 48.1249V61.0848C70.5241 66.1123 66.8735 69.7433 62.3931 69.7433Z" fill="#FFB800"/>
<path id="Vector_10" d="M14.6026 69.7435H13.6069C9.12659 69.7435 5.53125 66.1125 5.53125 61.5877V48.6278C5.53125 48.3485 5.53125 47.9016 5.53125 47.6223C6.08438 43.5444 9.45847 40.6396 13.4963 40.6396H14.4919C15.4876 40.6396 16.3726 41.5334 16.3726 42.5389C16.3726 43.5444 15.4876 44.4382 14.4919 44.4382H13.4963C11.3391 44.4382 9.45847 46.0582 9.18191 48.4044C9.18191 48.572 9.18191 48.8513 9.18191 48.963V61.9229C9.18191 64.3808 11.2285 66.4476 13.6623 66.4476H14.6579C15.6535 66.4476 16.5385 67.3414 16.5385 68.3469C16.3173 68.9055 15.4323 69.7435 14.6026 69.7435Z" fill="#FFB800"/>
<path id="Vector_11" d="M52.4366 69.7434H23.5633C22.5676 69.7434 21.6826 68.8496 21.6826 67.8441C21.6826 66.8386 22.5676 65.9448 23.5633 65.9448H52.4366C53.4323 65.9448 54.3173 66.8386 54.3173 67.8441C54.3173 68.9055 53.4323 69.7434 52.4366 69.7434Z" fill="#FFB800"/>
<path id="Vector_12" d="M61.5633 44.2146H14.6026C13.6069 44.2146 12.7219 43.3208 12.7219 42.3153V28.0148C12.7219 24.8307 15.3216 22.3169 18.3638 22.3169H57.636C60.7889 22.3169 63.278 24.9424 63.278 28.0148V42.3153C63.278 43.3767 62.393 44.2146 61.5633 44.2146ZM16.3173 40.5836H59.6826V28.0148C59.6826 26.8417 58.7976 25.9479 57.636 25.9479H18.3638C17.2023 25.9479 16.3173 26.8417 16.3173 28.0148V40.5836Z" fill="#FFB800"/>
<path id="Vector_13" d="M7.35672 49.6332C6.36108 49.6332 5.47607 48.7394 5.47607 47.7339V44.1029C5.47607 43.0974 6.36108 42.2036 7.35672 42.2036C8.35235 42.2036 9.23736 43.0974 9.23736 44.1029V47.7339C9.12673 48.7394 8.24172 49.6332 7.35672 49.6332Z" fill="#FFB800"/>
<path id="Vector_14" d="M7.35671 33.2659C6.36108 33.2659 5.47607 32.3721 5.47607 31.3666V7.2903C5.47607 3.49172 8.51829 0.307617 12.4455 0.307617H63.61C67.3713 0.307617 70.5241 3.38 70.5241 7.2903V29.4673C70.5241 30.4728 69.6391 31.3666 68.6435 31.3666C67.6478 31.3666 66.7628 30.4728 66.7628 29.4673V7.2903C66.7628 5.39101 65.3247 3.93861 63.444 3.93861H12.4455C10.5649 3.93861 9.12673 5.39101 9.12673 7.2903V31.3666C9.12673 32.4279 8.24172 33.2659 7.35671 33.2659Z" fill="#FFB800"/>
<path id="Vector_15" d="M68.7539 49.6331C67.7583 49.6331 66.8733 48.7393 66.8733 47.7338V42.2035C66.8733 41.198 67.7583 40.3042 68.7539 40.3042C69.7496 40.3042 70.6346 41.198 70.6346 42.2035V47.7338C70.5239 48.7393 69.6389 49.6331 68.7539 49.6331Z" fill="#FFB800"/>
<path id="Vector_16" d="M74.1193 44.2146H68.6433C67.6477 44.2146 66.7627 43.3208 66.7627 42.3153V29.4672C66.7627 28.4617 67.6477 27.5679 68.6433 27.5679H74.1193C75.115 27.5679 76 28.4617 76 29.4672V42.3153C76 43.3767 75.115 44.2146 74.1193 44.2146ZM70.524 40.5836H72.4046V31.3664H70.524V40.5836Z" fill="#FFB800"/>
<path id="Vector_17" d="M7.35662 46.0023H1.88064C0.885007 46.0023 0 45.1085 0 44.103V31.3666C0 30.3611 0.885007 29.4673 1.88064 29.4673H7.35662C8.35226 29.4673 9.23726 30.3611 9.23726 31.3666V44.2147C9.12664 45.1085 8.24163 46.0023 7.35662 46.0023ZM3.76128 42.3154H5.64192V33.1541H3.76128V42.3154Z" fill="#FFB800"/>
<path id="Vector_18" d="M19.0829 80.6922C15.5982 80.6922 12.7219 77.7874 12.7219 74.2682V67.8441C12.7219 66.8386 13.6069 65.9448 14.6026 65.9448H23.5633C24.5589 65.9448 25.4439 66.8386 25.4439 67.8441V74.2682C25.4439 77.7874 22.5123 80.6922 19.0829 80.6922ZM16.3173 69.7434V74.2682C16.3173 75.7206 17.4788 77.0612 19.0829 77.0612C20.5211 77.0612 21.8486 75.8882 21.8486 74.2682V69.7434H16.3173Z" fill="#FFB800"/>
<path id="Vector_19" d="M56.9171 80.6922C53.4324 80.6922 50.5562 77.7874 50.5562 74.2682V67.8441C50.5562 66.8386 51.4412 65.9448 52.4368 65.9448H61.5634C62.5591 65.9448 63.4441 66.8386 63.4441 67.8441V74.2682C63.2781 77.7874 60.4019 80.6922 56.9171 80.6922ZM54.3174 69.7434V74.2682C54.3174 75.7206 55.479 77.0612 57.0831 77.0612C58.5212 77.0612 59.8487 75.8882 59.8487 74.2682V69.7434H54.3174Z" fill="#FFB800"/>
<path id="Vector_20" d="M72.4046 80.6921H3.76126C2.76562 80.6921 1.88062 79.7983 1.88062 78.7928C1.88062 77.7873 2.76562 76.8936 3.76126 76.8936H72.4046C73.4003 76.8936 74.2853 77.7873 74.2853 78.7928C74.1193 79.8542 73.2343 80.6921 72.4046 80.6921Z" fill="#FFB800"/>
<path id="Vector_21" d="M18.1979 60.5821C15.1557 60.5821 12.7219 58.1241 12.7219 55.0518C12.7219 51.9794 15.1557 49.5215 18.1979 49.5215C21.2401 49.5215 23.6739 51.9794 23.6739 55.0518C23.6739 58.0683 21.0742 60.5821 18.1979 60.5821ZM18.1979 53.2642C17.2023 53.2642 16.3173 54.158 16.3173 55.1635C16.3173 56.169 17.2023 57.0628 18.1979 57.0628C19.1935 57.0628 20.0785 56.169 20.0785 55.1635C20.0785 54.158 19.0829 53.2642 18.1979 53.2642Z" fill="#FFB800"/>
<path id="Vector_22" d="M57.9127 60.5821C54.8705 60.5821 52.4368 58.1241 52.4368 55.0518C52.4368 51.9794 54.8705 49.5215 57.9127 49.5215C60.955 49.5215 63.3887 51.9794 63.3887 55.0518C63.444 58.0683 60.8443 60.5821 57.9127 60.5821ZM57.9127 53.2642C56.9171 53.2642 56.0321 54.158 56.0321 55.1635C56.0321 56.169 56.9171 57.0628 57.9127 57.0628C58.9084 57.0628 59.7934 56.169 59.7934 55.1635C59.7934 54.158 58.7978 53.2642 57.9127 53.2642Z" fill="#FFB800"/>
<path id="Vector_23" d="M47.0714 56.8953H29.0393C28.0437 56.8953 27.1587 56.0015 27.1587 54.996C27.1587 53.9905 28.0437 53.0967 29.0393 53.0967H47.0714C48.067 53.0967 48.952 53.9905 48.952 54.996C48.952 56.0015 47.9564 56.8953 47.0714 56.8953Z" fill="#FFB800"/>
<path id="Vector_24" d="M43.4759 62.4812H32.6345C31.6389 62.4812 30.7539 61.5874 30.7539 60.5819C30.7539 59.5764 31.6389 58.6826 32.6345 58.6826H43.4759C44.4715 58.6826 45.3565 59.5764 45.3565 60.5819C45.2459 61.5874 44.3609 62.4812 43.4759 62.4812Z" fill="#FFB800"/>
<path id="Vector_25" d="M43.4759 51.5325H32.6345C31.6389 51.5325 30.7539 50.6387 30.7539 49.6332C30.7539 48.6277 31.6389 47.7339 32.6345 47.7339H43.4759C44.4715 47.7339 45.3565 48.6277 45.3565 49.6332C45.3565 50.6387 44.3609 51.5325 43.4759 51.5325Z" fill="#FFB800"/>
<path id="Vector_26" d="M39.8807 38.6844C39.3276 38.6844 38.7192 38.405 38.4426 37.9582C37.8895 37.0644 38.0001 36.0589 38.8851 35.3327L46.1311 29.8024C47.0161 29.2438 48.0117 29.3555 48.7308 30.2493C49.4499 31.1431 49.1733 32.1486 48.2883 32.8748L41.0423 38.405C40.5998 38.5168 40.1573 38.6844 39.8807 38.6844Z" fill="#FFB800"/>
<path id="Vector_27" d="M31.3624 38.6845C30.8093 38.6845 30.2008 38.4052 29.9243 37.9583C29.3711 37.0645 29.4818 36.059 30.3668 35.3328L35.1237 31.7018C36.0087 31.1432 37.0043 31.2549 37.7234 32.1487C38.2765 33.0425 38.1659 34.048 37.2809 34.7742L32.524 38.4052C32.0815 38.5169 31.8049 38.6845 31.3624 38.6845Z" fill="#FFB800"/>
</g>
</g>
</g>
</g>
</svg>
