<svg width="16" height="16" viewBox="0 0 16 16" fill="none" xmlns="http://www.w3.org/2000/svg">
<g id="vuesax/bold/magic-star">
<g id="magic-star">
<path id="Vector" d="M11.5267 2.75995L11.48 5.28661C11.4734 5.63328 11.6934 6.09328 11.9734 6.29995L13.6267 7.55328C14.6867 8.35328 14.5134 9.33328 13.2467 9.73328L11.0934 10.4066C10.7334 10.5199 10.3534 10.9133 10.26 11.2799L9.74669 13.2399C9.34002 14.7866 8.32668 14.9399 7.48668 13.5799L6.31335 11.6799C6.10002 11.3333 5.59335 11.0733 5.19335 11.0933L2.96668 11.2066C1.37335 11.2866 0.920018 10.3666 1.96002 9.15328L3.28002 7.61995C3.52668 7.33328 3.64002 6.79995 3.52668 6.43995L2.84668 4.27995C2.45335 3.01328 3.16002 2.31328 4.42002 2.72661L6.38668 3.37328C6.72002 3.47995 7.22002 3.40661 7.50002 3.19995L9.55335 1.71995C10.6667 0.926614 11.5534 1.39328 11.5267 2.75995Z" fill="#FFB800"/>
</g>
</g>
</svg>
