<svg width="76" height="77" viewBox="0 0 76 77" fill="none" xmlns="http://www.w3.org/2000/svg">
<g id="vuesax/broken/ticket-discount">
<g id="ticket-discount">
<path id="Vector" d="M69.6668 32.1665V28.9998C69.6668 16.3332 66.5002 13.1665 53.8335 13.1665H22.1668C9.50016 13.1665 6.3335 16.3332 6.3335 28.9998V30.5832C10.7035 30.5832 14.2502 34.1298 14.2502 38.4998C14.2502 42.8698 10.7035 46.4165 6.3335 46.4165V47.9998C6.3335 60.6665 9.50016 63.8332 22.1668 63.8332H53.8335C66.5002 63.8332 69.6668 60.6665 69.6668 47.9998C65.2968 47.9998 61.7502 44.4532 61.7502 40.0832" stroke="#FFB800" stroke-width="5" stroke-linecap="round" stroke-linejoin="round"/>
<path id="Vector_2" d="M27.3281 50.1535L48.6398 28.8418" stroke="#FFB800" stroke-width="5" stroke-linecap="round" stroke-linejoin="round"/>
<path id="Vector_3" d="M47.4824 47.2083H47.5109" stroke="#FFB800" stroke-width="5" stroke-linecap="round" stroke-linejoin="round"/>
<path id="Vector_4" d="M28.4824 29.7918H28.5109" stroke="#FFB800" stroke-width="5" stroke-linecap="round" stroke-linejoin="round"/>
</g>
</g>
</svg>
